<svg xmlns="http://www.w3.org/2000/svg" viewBox="0 0 700 250" width="700" height="250" preserveAspectRatio="xMidYMid meet" style="width: 100%; height: 100%; transform: translate3d(0px, 0px, 0px);"><defs><clipPath id="__lottie_element_2"><rect width="700" height="250" x="0" y="0"></rect></clipPath><linearGradient id="__lottie_element_7" spreadMethod="pad" gradientUnits="userSpaceOnUse" x1="0" y1="0" x2="100" y2="0"><stop offset="0%" stop-color="rgb(125,6,139)"></stop><stop offset="50%" stop-color="rgb(85,4,132)"></stop><stop offset="100%" stop-color="rgb(46,1,124)"></stop></linearGradient><linearGradient id="__lottie_element_8" spreadMethod="pad" gradientUnits="userSpaceOnUse" x1="0" y1="0" x2="100" y2="0"><stop offset="0%" stop-color="rgb(209,3,127)"></stop><stop offset="50%" stop-color="rgb(167,5,133)"></stop><stop offset="100%" stop-color="rgb(125,6,139)"></stop></linearGradient></defs><g clip-path="url(#__lottie_element_2)"><g transform="matrix(1,0,0,1,46.5,49.5)" opacity="1" style="display: block;"><g opacity="1" transform="matrix(1,0,0,1,472.27398681640625,86.93000030517578)"></g><g opacity="1" transform="matrix(1,0,0,1,166.94500732421875,75.44999694824219)"></g></g><g transform="matrix(1,0,0,1,46.5,49.5)" opacity="1" style="display: block;"><g opacity="1" transform="matrix(1.0000003576278687,0,0,1.0000003576278687,472.27398681640625,86.93000030517578)"><path fill="url(#__lottie_element_7)" fill-opacity="1" d=" M74.40799713134766,-4.381999969482422 C74.41000366210938,-4.869999885559082 74.55999755859375,-5.3470001220703125 74.83599853515625,-5.75 C78.40599822998047,-11.45300006866455 84.73999786376953,-14.82800006866455 91.46600341796875,-14.609999656677246 C97.46600341796875,-14.609999656677246 101.00599670410156,-9.699000358581543 101.13600158691406,-4.389999866485596 C101.14700317382812,-3.0460000038146973 100.06900024414062,-1.9470000267028809 98.72599792480469,-1.9299999475479126 C98.72599792480469,-1.9299999475479126 76.83699798583984,-1.9299999475479126 76.83699798583984,-1.9299999475479126 C75.48899841308594,-1.937000036239624 74.4020004272461,-3.0339999198913574 74.40799713134766,-4.381999969482422z M-113.33300018310547,-63.970001220703125 C-114.51000213623047,-63.96900177001953 -115.51599884033203,-63.12699890136719 -115.7249984741211,-61.970001220703125 C-115.7249984741211,-61.970001220703125 -119.7239990234375,-39.27000045776367 -119.7239990234375,-39.27000045776367 C-119.93199920654297,-38.112998962402344 -120.93800354003906,-37.270999908447266 -122.11399841308594,-37.27000045776367 C-122.11399841308594,-37.27000045776367 -131.6840057373047,-37.27000045776367 -131.6840057373047,-37.27000045776367 C-132.85899353027344,-37.27199935913086 -133.86399841308594,-36.428001403808594 -134.06399536132812,-35.26900100708008 C-134.06399536132812,-35.26900100708008 -137.78399658203125,-14.180000305175781 -137.78399658203125,-14.180000305175781 C-138.01600646972656,-12.86400032043457 -137.13699340820312,-11.607999801635742 -135.8209991455078,-11.376999855041504 C-135.68299865722656,-11.352999687194824 -135.54400634765625,-11.34000015258789 -135.4040069580078,-11.34000015258789 C-135.4040069580078,-11.34000015258789 -128.49400329589844,-11.34000015258789 -128.49400329589844,-11.34000015258789 C-127.1520004272461,-11.333000183105469 -126.06999969482422,-10.23900032043457 -126.0770034790039,-8.897000312805176 C-126.0790023803711,-8.760000228881836 -126.09100341796875,-8.62399959564209 -126.11399841308594,-8.489999771118164 C-126.11399841308594,-8.489999771118164 -132.04299926757812,25.16900062561035 -132.04299926757812,25.16900062561035 C-137.9040069580078,58.40999984741211 -108.10399627685547,62.630001068115234 -92.35399627685547,62.630001068115234 C-89.91300201416016,62.6349983215332 -87.4739990234375,62.51599884033203 -85.04399871826172,62.27000045776367 C-83.95999908447266,62.16600036621094 -83.08100128173828,61.34600067138672 -82.90399932861328,60.27000045776367 C-82.90399932861328,60.27000045776367 -78.13400268554688,33.27000045776367 -78.13400268554688,33.27000045776367 C-78.13400268554688,33.27000045776367 -79.90399932861328,33.459999084472656 -82.59500122070312,33.459999084472656 C-88.93399810791016,33.459999084472656 -99.99400329589844,31.91900062561035 -98.03399658203125,20.780000686645508 C-98.03399658203125,20.780000686645508 -92.7239990234375,-9.300000190734863 -92.7239990234375,-9.300000190734863 C-92.5199966430664,-10.456000328063965 -91.51699829101562,-11.298999786376953 -90.34500122070312,-11.300000190734863 C-90.34500122070312,-11.300000190734863 -68.7040023803711,-11.300000190734863 -68.7040023803711,-11.300000190734863 C-66.01399993896484,-11.300000190734863 -64.7040023803711,-9.770000457763672 -65.2239990234375,-7.080999851226807 C-65.2239990234375,-7.080999851226807 -70.8740005493164,26.920000076293945 -70.8740005493164,26.920000076293945 C-75.63300323486328,53.87200164794922 -62.7599983215332,63.37900161743164 -44.15399932861328,63.970001220703125 C-44.15399932861328,63.970001220703125 -40.70500183105469,63.970001220703125 -40.70500183105469,63.970001220703125 C-27.979000091552734,63.483001708984375 -15.461000442504883,57.04800033569336 -8.505000114440918,46.900001525878906 C-8.505000114440918,46.900001525878906 -8.11400032043457,46.900001525878906 -8.11400032043457,46.900001525878906 C-8.355999946594238,47.654998779296875 -8.555000305175781,48.42300033569336 -8.71399974822998,49.20000076293945 C-8.71399974822998,49.20000076293945 -8.954000473022461,50.54999923706055 -8.954000473022461,50.54999923706055 C-10.144000053405762,57.27000045776367 -5.953000068664551,61.689998626708984 3.1059999465942383,61.689998626708984 C3.1059999465942383,61.689998626708984 30.47599983215332,61.689998626708984 30.47599983215332,61.689998626708984 C31.649999618530273,61.69200134277344 32.65599822998047,60.84700012207031 32.85499954223633,59.691001892089844 C32.85499954223633,59.691001892089844 35.555999755859375,44.36000061035156 35.555999755859375,44.36000061035156 C35.792999267578125,43.04499816894531 37.051998138427734,42.16999816894531 38.36800003051758,42.40800094604492 C39.08300018310547,42.5369987487793 39.70399856567383,42.981998443603516 40.055999755859375,43.619998931884766 C46.729000091552734,55.207000732421875 59.4119987487793,63.417999267578125 78.43599700927734,63.970001220703125 C78.43599700927734,63.970001220703125 82.47699737548828,63.970001220703125 82.47699737548828,63.970001220703125 C103.49199676513672,63.34199905395508 119.2750015258789,52.89099884033203 124.0459976196289,49.400001525878906 C124.93900299072266,48.73899841308594 125.26100158691406,47.55099868774414 124.82599639892578,46.529998779296875 C124.82599639892578,46.529998779296875 117.35600280761719,28.66900062561035 117.35600280761719,28.66900062561035 C116.83499908447266,27.43899917602539 115.41400146484375,26.86400032043457 114.18399810791016,27.385000228881836 C114.05599975585938,27.43899917602539 113.93299865722656,27.5049991607666 113.81600189208984,27.57900047302246 C109.23600006103516,30.489999771118164 98.73500061035156,36.33000183105469 88.06600189208984,36.33000183105469 C78.32599639892578,36.33000183105469 69.90599822998047,31.60099983215332 68.4260025024414,21.06999969482422 C68.23300170898438,19.731000900268555 69.16100311279297,18.488000869750977 70.50199890136719,18.295000076293945 C70.61100006103516,18.27899932861328 70.7239990234375,18.270000457763672 70.83599853515625,18.270000457763672 C70.83599853515625,18.270000457763672 128.83599853515625,18.270000457763672 128.83599853515625,18.270000457763672 C129.92100524902344,18.277999877929688 130.87600708007812,17.555999755859375 131.16600036621094,16.510000228881836 C131.78599548339844,14.289999961853027 132.80599975585938,10.510000228881836 133.16700744628906,8.279999732971191 C138.01600646972656,-19.219999313354492 125.08699798583984,-39.59000015258789 95.8759994506836,-39.59000015258789 C63.986000061035156,-39.59000015258789 40.38600158691406,-16.920000076293945 35.2760009765625,12.08899974822998 C34.152000427246094,18.29599952697754 34.18600082397461,24.6560001373291 35.375999450683594,30.850000381469727 C35.696998596191406,32.14699935913086 34.90399932861328,33.45899963378906 33.606998443603516,33.779998779296875 C33.42100143432617,33.82600021362305 33.22800064086914,33.849998474121094 33.0359992980957,33.85100173950195 C33.0359992980957,33.85100173950195 30.115999221801758,33.85100173950195 30.115999221801758,33.85100173950195 C27.426000595092773,33.85100173950195 26.114999771118164,32.31999969482422 26.62700080871582,29.6299991607666 C26.62700080871582,29.6299991607666 37.91600036621094,-34.369998931884766 37.91600036621094,-34.369998931884766 C38.14799880981445,-35.68600082397461 37.26900100708008,-36.94200134277344 35.95199966430664,-37.17300033569336 C35.814998626708984,-37.196998596191406 35.67599868774414,-37.209999084472656 35.5369987487793,-37.209999084472656 C35.5369987487793,-37.209999084472656 7.216000080108643,-37.209999084472656 7.216000080108643,-37.209999084472656 C6.041999816894531,-37.21200180053711 5.035999774932861,-36.367000579833984 4.836999893188477,-35.209999084472656 C4.836999893188477,-35.209999084472656 -2.5329999923706055,6.590000152587891 -2.5329999923706055,6.590000152587891 C-5.144000053405762,21.389999389648438 -14.074000358581543,33.869998931884766 -28.292999267578125,33.869998931884766 C-35.202999114990234,33.869998931884766 -38.183998107910156,30.030000686645508 -36.55400085449219,20.809999465942383 C-36.55400085449219,20.809999465942383 -28.79400062561035,-23.190000534057617 -28.79400062561035,-23.190000534057617 C-27.073999404907227,-32.9900016784668 -30.554000854492188,-37.189998626708984 -40.354000091552734,-37.189998626708984 C-40.354000091552734,-37.189998626708984 -84.91400146484375,-37.189998626708984 -84.91400146484375,-37.189998626708984 C-86.25700378417969,-37.198001861572266 -87.33699798583984,-38.292999267578125 -87.3280029296875,-39.63600158691406 C-87.3270034790039,-39.801998138427734 -87.30899810791016,-39.96699905395508 -87.27400207519531,-40.130001068115234 C-87.27400207519531,-40.130001068115234 -83.5739974975586,-61.130001068115234 -83.5739974975586,-61.130001068115234 C-83.34300231933594,-62.44599914550781 -84.22100067138672,-63.70100021362305 -85.53800201416016,-63.933998107910156 C-85.67500305175781,-63.957000732421875 -85.81400299072266,-63.970001220703125 -85.9540023803711,-63.970001220703125 C-85.9540023803711,-63.970001220703125 -113.33300018310547,-63.970001220703125 -113.33300018310547,-63.970001220703125z"></path></g><g opacity="1" transform="matrix(1.0000078678131104,0,0,1.0000078678131104,166.94500732421875,75.44999694824219)"><path fill="url(#__lottie_element_8)" fill-opacity="1" d=" M-22.905000686645508,23.959999084472656 C-20.2549991607666,8.960000038146973 -8.225000381469727,-0.4399999976158142 3.875,-0.4399999976158142 C15.975000381469727,-0.4399999976158142 24.665000915527344,8.970000267028809 22.05500030517578,23.959999084472656 C19.44499969482422,38.75 7.485000133514404,47.779998779296875 -4.625,47.779998779296875 C-16.735000610351562,47.779998779296875 -25.506000518798828,38.779998779296875 -22.905000686645508,23.959999084472656z M-149.4290008544922,-75.44999694824219 C-152.18299865722656,-75.3740005493164 -154.56300354003906,-73.44400024414062 -155.18600463867188,-70.7300033569336 C-155.18600463867188,-70.7300033569336 -158.94500732421875,-50.7599983215332 -158.94500732421875,-50.7599983215332 C-159.61399841308594,-47.2599983215332 -156.7050018310547,-44.060001373291016 -152.8560028076172,-44.060001373291016 C-149.0050048828125,-44.060001373291016 -146.09500122070312,-40.86000061035156 -146.76499938964844,-37.361000061035156 C-146.76499938964844,-37.361000061035156 -166.84500122070312,67.47000122070312 -166.84500122070312,67.47000122070312 C-167.51499938964844,70.95999908447266 -164.60499572753906,74.16000366210938 -160.7550048828125,74.16000366210938 C-160.7550048828125,74.16000366210938 -132.7550048828125,74.16000366210938 -132.7550048828125,74.16000366210938 C-129.86000061035156,74.24800109863281 -127.30899810791016,72.27400207519531 -126.66500091552734,69.45099639892578 C-126.66500091552734,69.45099639892578 -119.66400146484375,32.63999938964844 -119.66400146484375,32.63999938964844 C-119.02200317382812,29.815000534057617 -116.47100067138672,27.83799934387207 -113.57499694824219,27.920000076293945 C-113.57499694824219,27.920000076293945 -95.33499908447266,27.920000076293945 -95.33499908447266,27.920000076293945 C-79.70500183105469,28.02199935913086 -64.58899688720703,22.349000930786133 -52.8849983215332,11.989999771118164 C-53.23500061035156,12.779999732971191 -53.41400146484375,13.239999771118164 -53.41400146484375,13.239999771118164 C-54.74599838256836,16.711999893188477 -55.75,20.301000595092773 -56.415000915527344,23.959999084472656 C-61.8650016784668,54.888999938964844 -40.70500183105469,75.44999694824219 -9.585000038146973,75.44999694824219 C21.53499984741211,75.44999694824219 49.95500183105469,54.888999938964844 55.415000915527344,23.959999084472656 C56.60599899291992,17.658000946044922 56.564998626708984,11.185999870300293 55.29600143432617,4.900000095367432 C55.051998138427734,3.5969998836517334 55.9109992980957,2.3440001010894775 57.2140007019043,2.1010000705718994 C57.36899948120117,2.071000099182129 57.52799987792969,2.058000087738037 57.685001373291016,2.059000015258789 C57.685001373291016,2.059000015258789 60.61600112915039,2.059000015258789 60.61600112915039,2.059000015258789 C63.30500030517578,2.059000015258789 64.61499786376953,3.5899999141693115 64.09500122070312,6.281000137329102 C64.09500122070312,6.281000137329102 52.80500030517578,70.27999877929688 52.80500030517578,70.27999877929688 C52.573001861572266,71.59600067138672 53.45199966430664,72.85199737548828 54.768001556396484,73.08300018310547 C54.909000396728516,73.10700225830078 55.051998138427734,73.12000274658203 55.19499969482422,73.12000274658203 C55.19499969482422,73.12000274658203 83.55500030517578,73.12000274658203 83.55500030517578,73.12000274658203 C84.7300033569336,73.12300109863281 85.73500061035156,72.2770004272461 85.93499755859375,71.12000274658203 C85.93499755859375,71.12000274658203 93.30500030517578,29.31999969482422 93.30500030517578,29.31999969482422 C94.03800201416016,24.773000717163086 95.46399688720703,20.364999771118164 97.53500366210938,16.25 C101.90499877929688,7.800000190734863 109.26499938964844,2.0409998893737793 119.63500213623047,2.0409998893737793 C126.93499755859375,2.0409998893737793 129.9149932861328,5.880000114440918 128.28500366210938,15.100000381469727 C128.28500366210938,15.100000381469727 120.5250015258789,59.099998474121094 120.5250015258789,59.099998474121094 C118.79499816894531,68.88999938964844 122.28500366210938,73.0999984741211 132.0749969482422,73.0999984741211 C132.0749969482422,73.0999984741211 160.78500366210938,73.0999984741211 160.78500366210938,73.0999984741211 C161.96200561523438,73.10399627685547 162.9709930419922,72.25900268554688 163.1750030517578,71.0989990234375 C163.1750030517578,71.0989990234375 167.22500610351562,48.099998474121094 167.22500610351562,48.099998474121094 C167.4459991455078,46.78099822998047 166.55599975585938,45.534000396728516 165.23899841308594,45.3129997253418 C165.10899353027344,45.29100036621094 164.9770050048828,45.279998779296875 164.84500122070312,45.279998779296875 C164.84500122070312,45.279998779296875 160.4340057373047,45.279998779296875 160.4340057373047,45.279998779296875 C157.7449951171875,45.279998779296875 156.43499755859375,43.75 156.94400024414062,41.060001373291016 C156.94400024414062,41.060001373291016 162.60400390625,8.970000267028809 162.60400390625,8.970000267028809 C167.51499938964844,-18.889999389648438 153.60400390625,-28.110000610351562 133.60499572753906,-28.110000610351562 C116.125,-28.110000610351562 105.24500274658203,-18.700000762939453 99.28500366210938,-11.010000228881836 C99.28500366210938,-11.010000228881836 98.8949966430664,-11.010000228881836 98.8949966430664,-11.010000228881836 C99.13600158691406,-11.765000343322754 99.33699798583984,-12.532999992370605 99.49500274658203,-13.3100004196167 C99.49500274658203,-13.3100004196167 99.73500061035156,-14.65999984741211 99.73500061035156,-14.65999984741211 C100.91500091552734,-21.389999389648438 96.89399719238281,-25.799999237060547 87.86499786376953,-25.799999237060547 C87.86499786376953,-25.799999237060547 60.29499816894531,-25.799999237060547 60.29499816894531,-25.799999237060547 C59.12099838256836,-25.80299949645996 58.1150016784668,-24.95800018310547 57.915000915527344,-23.799999237060547 C57.915000915527344,-23.799999237060547 55.1150016784668,-7.940000057220459 55.1150016784668,-7.940000057220459 C54.89799880981445,-6.632999897003174 53.6619987487793,-5.748000144958496 52.354000091552734,-5.966000080108643 C51.643001556396484,-6.084000110626221 51.02299880981445,-6.514999866485596 50.665000915527344,-7.139999866485596 C42.89400100708008,-20.290000915527344 27.665000915527344,-28.139999389648438 8.53499984741211,-28.139999389648438 C-8.020000457763672,-28.15399932861328 -24.014999389648438,-22.14299964904785 -36.46500015258789,-11.229999542236328 C-34.74599838256836,-15.345000267028809 -33.45000076293945,-19.62299919128418 -32.595001220703125,-24 C-26.825000762939453,-54.099998474121094 -44.05400085449219,-75.44999694824219 -75.58499908447266,-75.44999694824219 C-75.58499908447266,-75.44999694824219 -149.4290008544922,-75.44999694824219 -149.4290008544922,-75.44999694824219z"></path></g></g><g transform="matrix(1,0,0,1,46.5,49.5)" opacity="1" style="display: block;"><g opacity="1" transform="matrix(1,0,0,1,74.00800323486328,49.64699935913086)"><path fill="rgb(255,254,255)" fill-opacity="1" d=" M34.50199890136719,1.902999997138977 C34.50199890136719,1.902999997138977 26.781999588012695,4.0329999923706055 26.781999588012695,4.0329999923706055 C24.440000534057617,4.611999988555908 22.06599998474121,5.052999973297119 19.672000885009766,5.353000164031982 C18.27199935913086,5.435999870300293 17.202999114990234,6.638000011444092 17.285999298095703,8.038999557495117 C17.319000244140625,8.60200023651123 17.538999557495117,9.138999938964844 17.910999298095703,9.562999725341797 C19.332000732421875,11.157999992370605 20.667999267578125,12.82699966430664 21.910999298095703,14.562999725341797 C21.910999298095703,14.562999725341797 25.992000579833984,20.482999801635742 25.992000579833984,20.482999801635742 C26.77899932861328,21.604000091552734 26.506999969482422,23.150999069213867 25.386999130249023,23.937999725341797 C25.316999435424805,23.986000061035156 25.246000289916992,24.031999588012695 25.172000885009766,24.072999954223633 C25.172000885009766,24.072999954223633 12.402000427246094,31.753999710083008 12.402000427246094,31.753999710083008 C11.109000205993652,32.54499816894531 9.425999641418457,32.21900177001953 8.520999908447266,31.003999710083008 C8.520999908447266,31.003999710083008 4.4019999504089355,25.163000106811523 4.4019999504089355,25.163000106811523 C3.181999921798706,23.42099952697754 2.0889999866485596,21.593000411987305 1.1319999694824219,19.69300079345703 C0.3569999933242798,18.28499984741211 -1.4119999408721924,17.77199935913086 -2.819999933242798,18.547000885009766 C-3.183000087738037,18.746000289916992 -3.5,19.020999908447266 -3.749000072479248,19.35300064086914 C-5.065000057220459,21.23900032043457 -6.486000061035156,23.048999786376953 -8.008000373840332,24.773000717163086 C-8.008000373840332,24.773000717163086 -13.157999992370605,30.503999710083008 -13.157999992370605,30.503999710083008 C-14.196000099182129,31.586000442504883 -15.875,31.736000061035156 -17.089000701904297,30.85300064086914 C-17.089000701904297,30.85300064086914 -29.089000701904297,21.783000946044922 -29.089000701904297,21.783000946044922 C-30.194000244140625,21.00200080871582 -30.454999923706055,19.472999572753906 -29.673999786376953,18.368000030517578 C-29.604999542236328,18.270999908447266 -29.5310001373291,18.179000854492188 -29.448999404907227,18.093000411987305 C-29.448999404907227,18.093000411987305 -24.30900001525879,12.532999992370605 -24.30900001525879,12.532999992370605 C-22.802000045776367,10.817000389099121 -21.19099998474121,9.194000244140625 -19.488000869750977,7.672999858856201 C-18.476999282836914,6.723999977111816 -18.42799949645996,5.136000156402588 -19.375999450683594,4.125 C-19.774999618530273,3.700000047683716 -20.309999465942383,3.427000045776367 -20.888999938964844,3.3529999256134033 C-23.229000091552734,2.8529999256134033 -25.398000717163086,2.243000030517578 -27.42799949645996,1.652999997138977 C-27.42799949645996,1.652999997138977 -34.638999938964844,-0.6470000147819519 -34.638999938964844,-0.6470000147819519 C-35.99599838256836,-1.0230000019073486 -36.79100036621094,-2.427999973297119 -36.415000915527344,-3.7850000858306885 C-36.39400100708008,-3.864000082015991 -36.36800003051758,-3.940999984741211 -36.3390007019043,-4.017000198364258 C-36.3390007019043,-4.017000198364258 -30.858999252319336,-17.336999893188477 -30.858999252319336,-17.336999893188477 C-30.249000549316406,-18.672000885009766 -28.731000900268555,-19.332000732421875 -27.339000701904297,-18.867000579833984 C-27.339000701904297,-18.867000579833984 -20.007999420166016,-16.64699935913086 -20.007999420166016,-16.64699935913086 C-17.732999801635742,-15.901000022888184 -15.517999649047852,-14.98900032043457 -13.378000259399414,-13.916999816894531 C-12.015000343322754,-13.210000038146973 -10.338000297546387,-13.741999626159668 -9.630999565124512,-15.104999542236328 C-9.425000190734863,-15.50100040435791 -9.317000389099121,-15.940999984741211 -9.317999839782715,-16.386999130249023 C-9.425000190734863,-18.566999435424805 -9.395999908447266,-20.750999450683594 -9.229000091552734,-22.927000045776367 C-9.229000091552734,-22.927000045776367 -8.689000129699707,-29.98699951171875 -8.689000129699707,-29.98699951171875 C-8.515999794006348,-31.474000930786133 -7.177999973297119,-32.54499816894531 -5.689000129699707,-32.387001037597656 C-5.689000129699707,-32.387001037597656 9.562000274658203,-31.64699935913086 9.562000274658203,-31.64699935913086 C11.031000137329102,-31.64299964904785 12.218000411987305,-30.450000762939453 12.21500015258789,-28.979999542236328 C12.21500015258789,-28.93600082397461 12.21399974822998,-28.891000747680664 12.211999893188477,-28.847000122070312 C12.211999893188477,-28.847000122070312 11.581000328063965,-21.847000122070312 11.581000328063965,-21.847000122070312 C11.406999588012695,-19.76099967956543 11.109999656677246,-17.687000274658203 10.690999984741211,-15.63700008392334 C10.281000137329102,-13.63700008392334 12.461999893188477,-12.017000198364258 14.482000350952148,-12.786999702453613 C16.66200065612793,-13.628999710083008 18.892000198364258,-14.329999923706055 21.160999298095703,-14.88700008392334 C21.160999298095703,-14.88700008392334 28.871999740600586,-16.886999130249023 28.871999740600586,-16.886999130249023 C30.326000213623047,-17.304000854492188 31.851999282836914,-16.507999420166016 32.34199905395508,-15.07699966430664 C32.34199905395508,-15.07699966430664 36.4109992980957,-1.2970000505447388 36.4109992980957,-1.2970000505447388 C36.790000915527344,0.07699999958276749 35.983001708984375,1.496999979019165 34.60900115966797,1.8760000467300415 C34.57400131225586,1.8860000371932983 34.53900146484375,1.8949999809265137 34.50199890136719,1.902999997138977z"></path></g></g></g></svg>